<?xml version="1.0" encoding="UTF-8" standalone="no"?>
<!-- Created with Inkscape (http://www.inkscape.org/) -->

<svg
   version="1.1"
   id="svg1"
   width="1218.071"
   height="862.19342"
   viewBox="0 0 1218.071 862.19342"
   sodipodi:docname="Elephant10b.svg"
   inkscape:version="1.3.2 (091e20ef0f, 2023-11-25)"
   xmlns:inkscape="http://www.inkscape.org/namespaces/inkscape"
   xmlns:sodipodi="http://sodipodi.sourceforge.net/DTD/sodipodi-0.dtd"
   xmlns="http://www.w3.org/2000/svg"
   xmlns:svg="http://www.w3.org/2000/svg">
  <defs
     id="defs1" />
  <sodipodi:namedview
     id="namedview1"
     pagecolor="#ffffff"
     bordercolor="#000000"
     borderopacity="0.25"
     inkscape:showpageshadow="2"
     inkscape:pageopacity="0.0"
     inkscape:pagecheckerboard="0"
     inkscape:deskcolor="#d1d1d1"
     showgrid="false"
     inkscape:zoom="0.65930599"
     inkscape:cx="695.42823"
     inkscape:cy="379.94498"
     inkscape:window-width="1920"
     inkscape:window-height="1011"
     inkscape:window-x="0"
     inkscape:window-y="0"
     inkscape:window-maximized="1"
     inkscape:current-layer="layer2" />
  <g
     inkscape:groupmode="layer"
     id="layer2"
     inkscape:label="Layer 1">
    <path
       style="fill:#000000"
       d="m 391.80244,979.08638 c -4.53098,-0.73226 -5.09497,-3.0009 -5.11757,-20.58541 -0.0222,-17.25728 1.31437,-21.44207 12.02198,-37.64144 4.43264,-6.70608 8.85394,-15.19286 9.82511,-18.85953 0.97117,-3.66667 2.50781,-9.36667 3.41476,-12.66667 4.48955,-16.33554 6.55832,-46.10827 6.6706,-96 0.18016,-80.0542 1.79664,-94.35205 25.44779,-225.08727 3.62385,-20.03133 7.49327,-43.73133 8.59872,-52.66666 1.10545,-8.93534 2.36135,-18.12283 2.7909,-20.41665 0.68155,-3.63961 0.0445,-4.88239 -5.00354,-9.76145 -7.62395,-7.36871 -22.32831,-17.10418 -30.55574,-20.23036 -8.08248,-3.0711 -21.30538,-3.25627 -42.61279,-0.59673 -28.30373,3.53279 -34.97219,6.16487 -45.61816,18.00575 -7.76139,8.63254 -9.77801,13.10475 -13.02499,28.88534 -3.98369,19.36107 -8.14765,22.31831 -16.71086,11.86803 -5.47636,-6.68317 -7.92908,-7.28998 -13.08217,-3.23656 -4.73082,3.72126 -4.59494,7.7143 1.20427,35.3901 3.3179,15.83414 4.95679,27.69231 5.52428,39.97076 1.79154,38.7629 -5.44724,67.46133 -42.51249,168.54237 -19.30532,52.64775 -20.52771,57.65011 -16.46413,67.37563 4.40364,10.53938 14.93613,19.29104 23.2165,19.29104 4.82157,0 9.51842,-5.74508 9.51842,-11.64272 0,-6.39811 3.1195,-11.02395 7.43414,-11.02395 1.8056,0 6.62741,1.78472 10.71513,3.96605 7.10266,3.79019 7.64086,3.87888 12.13764,2 2.58798,-1.08133 7.95942,-1.96605 11.93653,-1.96605 5.8997,0 7.83369,0.60258 10.50384,3.27273 6.1113,6.11131 3.28668,12.72727 -5.43379,12.72727 -5.02633,0 -9.81013,3.83076 -19.91904,15.95071 -14.25779,17.09419 -32.88413,29.38262 -44.53706,29.38262 -2.79762,0 -8.35938,-1.126 -12.35946,-2.50223 C 221.36387,884.48426 216.258,879.38574 209.41746,860.48098 198.6563,830.74107 198.58007,801.39128 209.10452,740 c 3.70865,-21.63333 7.45957,-46.18092 8.33538,-54.55019 2.06317,-19.71592 0.88125,-45.47179 -2.72812,-59.44981 -2.63804,-10.21636 -14.55444,-47.40167 -15.55987,-48.5548 -0.26605,-0.30514 -5.73407,1.92466 -12.15115,4.95512 -13.42814,6.34141 -36.33862,12.81087 -69.66743,19.67269 -19.724813,4.061 -26.941847,4.91665 -46.666663,5.53282 C 47.570584,608.32731 32,606.82393 32,603.87247 c 0,-1.93868 4.518713,-3.28307 24.065587,-7.1599 24.013759,-4.76278 43.704804,-10.25186 63.156363,-17.60548 19.46316,-7.35802 55.9969,-23.70261 61.09546,-27.33311 4.49213,-3.19868 4.66135,-6.80131 0.63209,-13.45703 l -3.03683,-5.01638 -13.7199,8.11167 c -24.03031,14.20754 -51.77477,23.55696 -85.012223,28.64771 -18.31408,2.80504 -51.869417,3.27122 -56.323693,0.7825 -4.583538,-2.56094 -2.246336,-3.99357 11.304069,-6.92901 C 85.725835,552.74287 156.4907,513.315 166.79874,490.01197 c 1.47443,-3.3332 3.02615,-11.54827 3.80659,-20.1528 2.79275,-30.79048 16.70658,-66.8154 35.50317,-91.92285 7.13145,-9.52582 10.51792,-18.12188 14.01857,-35.58413 3.18179,-15.87172 7.58008,-28.42303 15.54211,-44.35219 11.10008,-22.20729 21.51915,-34.83931 45.31862,-54.94403 5.69623,-4.81192 7.08435,-6.987 9.75022,-15.27789 1.70963,-5.31695 7.13368,-17.79213 12.05345,-27.72263 23.00565,-46.43661 53.35297,-74.3369 88.02114,-80.92361 20.99878,-3.98963 56.79302,-1.23341 89.18739,6.86757 18.25691,4.56557 36.46469,6.98283 75.52587,10.02677 40.02578,3.11912 52.35504,4.54475 64.94291,7.50931 13.59421,3.20156 40.36473,1.78283 87.53122,-4.6388 62.94762,-8.57021 65.20887,-8.70965 126.66667,-7.811 l 55.33333,0.8091 34,11.87138 c 47.05253,16.42878 60.10337,21.60586 84.6696,33.58722 54.5904,26.62458 90.4684,59.38151 124.8401,113.97994 12.6521,20.09745 38.2783,72.09795 46.4387,94.23295 14.3572,38.94361 20.8689,67.07961 22.7506,98.30057 0.6941,11.51655 2.4566,29.00783 3.9165,38.8695 2.6149,17.66335 12.0512,116.80044 12.0512,126.60952 0,5.73105 -1.4932,6.72607 -7.6268,5.08243 -3.0463,-0.81633 -5.2427,-2.78845 -7.5617,-6.78941 -6.9872,-12.05483 -9.9674,-29.13964 -14.8224,-84.97222 -4.589,-52.77388 -6.6211,-65.41489 -10.1637,-63.22542 -1.9047,1.17713 -0.7398,18.63896 2.7945,41.89208 4.0288,26.50576 4.1698,28.66259 5.4067,82.66667 1.4607,63.77207 1.4244,63.49457 18.6564,142.66667 12.6223,57.99316 18.0718,86.73529 21.9604,115.82608 1.8302,13.6922 4.6125,29.68268 6.1828,35.53441 5.7137,21.29275 6.7847,35.53631 3.2992,43.87828 -2.2198,5.31278 -6.2844,6.49295 -30.3688,8.81772 -14.7464,1.42341 -108.92,4.07867 -110.6101,3.1187 -0.4694,-0.26663 -1.8968,-4.74223 -3.172,-9.94579 -3.8715,-15.79796 -1.1638,-25.97681 11.3224,-42.56274 11.0612,-14.69315 17.3002,-32.44235 17.3412,-49.33333 0.048,-19.86923 -9.425,-54.67848 -21.3789,-78.5569 -11.5484,-23.06815 -24.5053,-38.69108 -56.1041,-67.64762 -11.4809,-10.52085 -21.7435,-19.12881 -22.806,-19.12881 -3.9826,0 -17.5957,5.45913 -22.01105,8.82689 -2.5203,1.92233 -8.64017,8.97268 -13.59972,15.66746 -26.08748,35.21487 -37.62149,59.74127 -42.01769,89.34817 -2.69218,18.13093 -2.68881,61.96167 0.008,106.79037 1.55771,25.89154 1.68709,34.72928 0.52883,36.12489 -0.84337,1.0162 -4.92137,3.51142 -9.06222,5.54493 l -7.52883,3.69729 L 874,972.63309 c -60.09191,-0.0378 -62.09486,-0.29816 -66.42367,-8.63309 -1.90494,-3.66789 -2.28585,-6.66422 -1.77975,-14 1.09648,-15.89313 7.59064,-27.30271 29.56353,-51.94012 l 13.02708,-14.60679 -0.86026,-17.93736 c -0.47315,-9.86555 -0.86026,-61.25197 -0.86026,-114.19205 v -96.25469 l -13,-6.10391 c -31.6585,-14.86467 -81.28937,-22.78297 -142.33334,-22.7084 -42.01312,0.0513 -44.08476,0.70889 -38,12.06174 3.55403,6.63104 3.39751,9.64836 -1.56532,30.17649 -5.91824,24.48006 -5.75434,35.86676 1.02923,71.50509 L 658,767.33333 V 834.66667 902 l 6.52671,18.66667 c 4.66407,13.33944 6.71197,21.42766 7.17585,28.34124 0.59984,8.93979 0.36854,10.07949 -3.04541,15.00582 -2.032,2.93218 -5.86113,6.67862 -8.50918,8.32542 -4.79193,2.98006 -5.08019,2.99418 -61.11153,2.99418 h -56.29689 l -3.03644,-3.04813 c -2.72453,-2.73502 -3.00248,-4.15173 -2.70582,-13.7914 0.36063,-11.71834 4.9061,-27.33802 9.40758,-32.32746 5.92205,-6.56399 15.05738,-21.60407 16.9911,-27.97354 2.91848,-9.61318 4.15384,-47.54768 2.02719,-62.24923 -0.89719,-6.2023 -4.2421,-21.4769 -7.43314,-33.94357 -9.5073,-37.14288 -16.87623,-58.55162 -19.84209,-57.64663 -1.80476,0.55069 -25.73914,71.80752 -30.99166,92.26759 -3.54083,13.79254 -3.77824,16.42129 -3.79718,42.04571 L 503.33888,906 l 6.52394,18.66667 c 4.66028,13.33427 6.70937,21.43034 7.17307,28.34124 0.59984,8.93979 0.36854,10.07949 -3.0454,15.00582 -2.03201,2.93218 -5.86114,6.67862 -8.50919,8.32542 -4.76569,2.96375 -5.34999,2.99583 -57.4813,3.15603 -28.96667,0.089 -54.25557,-0.0949 -56.19756,-0.4088 z"
       transform="translate(-20.715983,-117.32417)"
       id="path1" />
    <path
       id="path5"
       style="display:inline;fill:#803300"
       d="m 417.8488,124.00972 c -21.00121,-0.0157 -33.82552,3.40131 -50.73633,13.51757 -10.50091,6.28181 -33.40353,28.48323 -41.57032,40.29688 -8.7616,12.67412 -23.29745,41.74132 -27.19726,54.38672 -2.5904,8.39954 -4.01522,10.69771 -10.19727,16.44336 -28.86572,26.82803 -37.4342,37.59858 -48.80468,61.3457 -7.65347,15.98414 -11.22713,28.1223 -12.62891,42.90039 -1.36827,14.42482 -2.8596,17.89581 -13.26172,30.88477 -13.14529,16.41429 -25.29919,42.18848 -32.32812,68.55078 -3.831,14.36827 -4.11641,36.84292 -0.67188,52.95508 2.93895,13.74721 8.779,29.28665 11.69336,31.11328 1.70055,1.06586 4.83193,-0.79257 15.08984,-8.95899 18.13303,-14.43584 39.29003,-32.89859 44.47657,-38.8125 4.22377,-4.81614 4.61673,-4.96491 11.04882,-4.20312 8.59513,1.01796 19.79425,7.09065 22.48633,12.19336 3.07343,5.82547 8.93791,11.06012 13.51953,12.0664 2.21513,0.48652 4.74243,2.02897 5.61719,3.42969 0.87477,1.40071 1.97285,2.54688 2.43945,2.54688 1.27333,0 6.09459,-11.79324 7.91016,-19.34961 2.97796,-12.39429 12.75737,-24.87022 24.08984,-30.73047 7.2355,-3.74162 30.90559,-7.27009 54.64844,-8.14649 20.12953,-0.743 22.98078,-0.561 31.43164,2.00586 5.11176,1.55265 11.54652,4.351 14.29883,6.21875 2.75232,1.86777 7.80775,4.82024 11.23438,6.5625 3.4266,1.74228 7.72316,5.18068 9.54882,7.63868 5.77252,7.77184 5.03485,16.20573 -7.33007,83.80078 -8.38285,45.82619 -22.96805,132.19038 -24.76954,146.66797 -0.68436,5.49998 -1.81113,44.28716 -2.5039,86.19335 -1.18144,71.46686 -1.4291,76.69655 -4,84.32813 -1.5075,4.47496 -3.38809,12.78159 -4.17774,18.45898 -1.78909,12.86321 -2.85037,15.38494 -12.98437,30.80469 -9.79493,14.90386 -11.19092,19.12855 -10.64063,32.21485 l 0.41993,10 5.33398,0.88085 c 2.93334,0.48424 25.73273,0.76186 50.66602,0.61719 38.79192,-0.22506 45.91237,-0.57442 49.33789,-2.41211 11.86501,-6.36525 12.55434,-13.59189 3.79882,-39.7539 l -6.46875,-19.33203 0.0625,-33.33399 c 0.0735,-39.26165 -0.45289,-36.47611 16.6211,-88.19726 6.57204,-19.9083 12.83066,-39.97672 13.9082,-44.59571 1.07754,-4.61897 3.23295,-10.11982 4.78906,-12.22461 2.60369,-3.52166 2.71862,-4.53774 1.44336,-12.73828 -0.76219,-4.90119 -1.7412,-15.21017 -2.17578,-22.91015 -1.84108,-32.6208 -7.82265,-63.60206 -15.9414,-82.57032 -5.11114,-11.94138 -13.18748,-36.4441 -19.49024,-59.125 -4.71394,-16.96352 -4.42634,-19.39915 2.10547,-17.75976 4.37002,1.09681 5.10883,2.83157 14.53906,34.15429 4.08676,13.57425 9.8915,30.96901 12.89844,38.65625 3.00694,7.68725 6.60871,19.07724 8.00391,25.31055 1.3952,6.23333 3.36912,14.03399 4.38672,17.33399 1.01759,3.29998 2.26764,11.09869 2.77929,17.33203 2.22136,27.06203 7.46516,55.24534 20.58789,110.66797 11.74295,49.59521 12.55131,55.60915 11.74024,87.33203 -0.37498,14.66662 -1.38905,29.83292 -2.25391,33.70117 -1.01711,4.54914 -4.42895,11.37613 -9.66016,19.33203 -4.44819,6.76507 -9.18186,14.70144 -10.51953,17.63477 -3.04899,6.68604 -3.17839,17.80121 -0.27734,23.88476 2.00951,4.21399 2.86918,4.72426 9.3125,5.5293 3.90436,0.48782 25.85918,0.64104 48.78711,0.33984 34.92131,-0.45874 42.33603,-0.89432 45.68945,-2.68164 11.8617,-6.32205 12.55606,-13.57888 3.80078,-39.74023 l -6.4707,-19.33203 -0.008,-68 -0.006,-68 -4.23438,-21.33399 c -4.86036,-24.48811 -7.60866,-50.83245 -6.44531,-61.78906 0.44054,-4.14917 2.37684,-14.58749 4.30274,-23.19531 3.495,-15.62106 3.49718,-15.66355 1.06054,-22.83204 -2.39383,-7.04251 -2.38402,-7.69776 0.56641,-33.68359 4.14796,-36.53331 8.48087,-61.42069 14.93164,-85.78516 3.01654,-11.39335 6.5535,-24.91551 7.86133,-30.04882 1.30784,-5.13334 4.19344,-14.50292 6.41211,-20.82227 7.62942,-21.73072 8.0067,-38.50075 1.57031,-69.84375 -7.9231,-38.5827 -14.4946,-51.13168 -43.26367,-82.60547 -9.2109,-10.07685 -16.74805,-18.86353 -16.74805,-19.52539 0,-0.66185 1.63531,-1.20312 3.63281,-1.20312 2.86584,0 6.90839,3.30555 19.16992,15.66797 8.54636,8.61665 16.22347,16.26667 17.06055,17 10.82485,9.48318 21.34487,30.03508 25.54492,49.9082 5.15997,24.415 5.5821,29.48706 4.90625,58.75195 -0.76776,33.24453 -2.32469,43.21755 -11.0332,70.67188 -9.4436,29.77175 -13.51961,46.9776 -15.95117,67.33398 -1.22634,10.26665 -3.03943,22.56733 -4.0293,27.33399 -1.18,5.68225 -1.34773,9.12337 -0.48828,9.99414 0.74075,0.75051 15.34534,1.76324 33.58203,2.32812 68.25607,2.11419 121.74749,10.35851 145.88477,22.48438 8.40191,4.22087 10.01297,4.65085 10.70117,2.85742 1.85551,-4.83537 -2.82015,-18.13465 -14.88477,-42.33203 -13.88078,-27.84003 -17.25967,-36.88308 -32.85547,-87.95899 l -10.57421,-34.62695 0.0332,-42.04102 c 0.0403,-50.8778 2.00176,-114.36874 3.95508,-128.0332 0.78575,-5.49667 2.22067,-10.78512 3.1875,-11.75195 2.72064,-2.72065 3.31886,9.01253 4.82226,94.41211 1.29715,73.68449 2.43207,95.80543 5.50586,107.33398 3.89421,14.60553 15.90042,54.13412 18.22461,60.00391 1.45281,3.66907 3.87197,8.76973 5.37695,11.33398 3.85057,6.56068 11.77629,25.13804 16.86524,39.5293 2.37283,6.71024 5.75089,14.51092 7.50586,17.33398 2.93874,4.72729 3.1914,6.50113 3.1914,22.46485 0,9.53331 -0.84242,37.73468 -1.87109,62.66797 -1.80447,43.73709 -1.45035,126.67432 0.69727,163.33203 l 0.82031,14 -13.66016,15.33398 c -27.91407,31.33195 -33.2085,42.63822 -26.68945,57 l 2.57227,5.66602 36.39843,-0.0293 c 57.39545,-0.0477 76.03772,-2.30489 82.40625,-9.97852 1.18972,-1.43352 1.0562,-8.8806 -0.56445,-31.59961 -6.46194,-90.58642 -3.80959,-118.09818 15.08008,-156.39257 10.17286,-20.62309 28.9218,-49.59309 41.41992,-64 13.4075,-15.45517 24.3419,-30.4895 31.9453,-43.92578 3.9596,-6.9974 11.6701,-18.27619 17.1348,-25.06446 13.6573,-16.96499 21.2539,-27.75268 23.75,-33.72656 1.1604,-2.77726 5.5772,-10.20282 9.8145,-16.5 13.9666,-20.7563 25.3545,-44.60732 27.4296,-57.44922 1.1699,-7.23921 6.272,-20.33905 14.4493,-37.09961 3.3361,-6.83793 6.4423,-14.94215 6.9023,-18.00976 0.9077,-6.05287 -2.4056,-35.72897 -5.3105,-47.55664 -0.9905,-4.03329 -2.7974,-12.73401 -4.0137,-19.33399 -2.983,-16.18753 -5.395,-24.20278 -12.1133,-40.23828 -3.1278,-7.46539 -6.6959,-17.04015 -7.9277,-21.27734 -1.2318,-4.2372 -3.7206,-10.62785 -5.5313,-14.20118 -3.4334,-6.77535 -3.8199,-14.30238 -0.7851,-15.29882 7.3127,-2.40105 29.6196,44.95727 36.2187,76.89453 0.8197,3.9666 2.6836,9.91071 4.1426,13.20898 8.4602,19.12577 5.819,74.27939 -4.7402,98.98828 -2.0189,4.72443 -5.4027,13.69052 -7.5196,19.92383 -4.5551,13.41267 -21.401,48.34794 -35.039,72.66602 -5.3464,9.53331 -12.2986,22.34251 -15.4512,28.46484 -4.0583,7.88121 -9.2711,14.95676 -17.8496,24.22852 -6.664,7.20254 -14.1553,16.59211 -16.6484,20.86718 -2.4933,4.2751 -7.2947,11.9741 -10.668,17.10743 -7.8005,11.87005 -7.6323,11.33203 -3.5235,11.33203 1.9237,0 5.7226,1.15585 8.4434,2.56836 12.9561,6.72625 51.8698,42.79929 64.6641,59.94336 13.0113,17.43484 23.5014,40.34352 30.2343,66.02343 5.7222,21.82545 7.1271,33.14282 6.4102,51.68555 -0.7778,20.12124 -4.3668,30.87506 -15.4395,46.26953 -13.1962,18.34717 -15.315,24.54765 -12.7558,37.34375 l 0.834,4.16602 26.834,-0.0234 c 32.8453,-0.0293 76.6028,-2.05917 88.3085,-4.09766 10.8076,-1.88206 16.5235,-6.15559 16.5235,-12.35351 0,-2.33153 -1.4956,-10.82953 -3.3242,-18.88282 -1.8286,-8.05327 -5.4168,-28.14261 -7.9746,-44.64257 -6.9191,-44.63582 -8.9563,-55.08104 -23.9141,-122.66602 -13.597,-61.43607 -16.7191,-84.71555 -16.8145,-125.33398 -0.098,-41.86932 -2.2505,-76.67837 -5.8554,-94.70508 -3.7085,-18.54471 -5.648,-45.74838 -3.8457,-53.96094 0.9013,-4.1071 1.8734,-5.43424 4.2265,-5.77344 10.7089,-1.54368 15.5695,17.01865 21.5391,82.26172 4.4473,48.60534 11.0846,81.50127 15.5449,77.04102 0.4056,-0.40564 -0.5297,-9.61569 -2.0801,-20.4668 -1.5504,-10.85111 -3.7427,-31.72986 -4.8711,-46.39648 -1.1285,-14.66665 -2.951,-33.56669 -4.0488,-42 -1.0977,-8.43332 -2.5876,-22.53205 -3.3125,-31.33203 -3.0243,-36.71179 -4.1401,-44.85343 -8.4883,-62 -9.4641,-37.32042 -25.1217,-76.9721 -44.9668,-113.86915 -32.0303,-59.55275 -61.9751,-94.43627 -106.0488,-123.54101 -28.2033,-18.62446 -57.04211,-31.55553 -116.1426,-52.07617 L 883.90901,138.7539 845.6219,137.49413 c -46.73022,-1.53785 -69.21203,-0.40638 -116.72461,5.87695 -68.90228,9.11205 -95.71613,10.66972 -114.64843,6.65821 -14.14671,-2.99751 -26.88727,-4.46212 -63.71485,-7.32422 -41.93219,-3.2588 -57.35664,-5.37551 -82.38867,-11.30859 -25.93675,-6.14754 -34.28624,-7.37476 -50.29687,-7.38672 z m 89.86914,50.02148 c 10.05524,0.0277 12.56116,0.52706 18.66015,3.71289 8.47984,4.42949 16.10351,11.78175 19.66602,18.9668 2.42018,4.88115 2.61281,8.01504 2.49023,40.62305 -0.19698,52.40058 -3.5197,77.67303 -13.28711,101.07421 -2.66115,6.37575 -7.16102,18.32045 -10,26.54493 -5.7172,16.56267 -12.0858,30.13255 -16.29101,34.71289 -2.3227,2.52986 -4.02403,2.97148 -10.85547,2.81836 -4.4555,-0.0999 -9.60027,-0.43216 -11.4336,-0.73829 -8.22821,-1.37391 -19.27256,-5.25046 -35.73437,-12.54296 -18.84161,-8.34676 -22.8375,-9.07604 -34.69141,-6.33985 -12.8717,2.97116 -13.92751,-2.01109 -1.82226,-8.59961 10.76308,-5.85799 18.4352,-4.55268 44.5332,7.58203 27.61294,12.83912 38.22129,13.2519 46.84766,1.82227 3.32173,-4.4012 12.20413,-27.66797 10.5625,-27.66797 -0.49271,0 -0.17492,-0.71961 0.70508,-1.59961 0.87998,-0.88 1.5996,-2.73682 1.5996,-4.12695 0,-1.39012 1.13038,-4.12182 2.51368,-6.06836 2.88707,-4.06264 10.06641,-23.75958 12.95312,-35.53906 2.61183,-10.65782 5.21967,-48.38117 5.11524,-74 -0.092,-22.55802 -1.9814,-32.37964 -8.00586,-41.62891 -4.38803,-6.73684 -9.92401,-9.27975 -22.75977,-10.45508 -5.96713,-0.54639 -12.18721,-1.70891 -13.82226,-2.58398 -2.76588,-1.48025 -2.81846,-1.74516 -0.76563,-3.79492 1.7196,-1.71703 4.76959,-2.19676 13.82227,-2.17188 z M 327.84098,298.66987 c 1.65133,-0.0141 3.18539,0.13244 4.51758,0.4668 5.9017,1.48123 8.20356,11.99685 4.28516,19.57422 -3.29307,6.36808 -14.08667,10.45017 -20.64258,7.80664 -8.12739,-3.27719 -14.14319,-12.61682 -11.65039,-18.08789 2.2503,-4.93889 14.57305,-9.68344 23.49023,-9.75977 z m -51.73047,238.66407 c -0.46861,0 -6.53648,4.18196 -13.48242,9.29492 -6.94593,5.11295 -19.22826,12.99676 -27.29492,17.51758 -19.78197,11.08644 -20.34415,11.45555 -22.58594,14.87695 -1.77693,2.71195 -1.48366,4.7182 3.19532,21.76758 8.28172,30.17715 9.89307,42.58452 8.9746,69.10937 -0.76791,22.17726 -3.40332,44.04061 -8.79882,72.99219 -7.29433,39.14039 -9.07298,75.21971 -4.76172,96.60156 2.5682,12.73705 9.3728,27.56084 15.47461,33.70899 9.56204,9.63467 25.50273,13.47839 36.62304,8.83203 5.47195,-2.28633 20.70495,-16.48784 24.81055,-23.13086 1.63654,-2.64798 7.36245,-7.49831 13.61328,-11.53125 9.50545,-6.13278 15.83578,-11.37305 13.73828,-11.37305 -0.39061,0 -4.51488,1.79863 -9.16406,3.99805 -9.23133,4.36713 -16.50227,5.0923 -20.53125,2.04492 -4.31637,-3.26474 -5.9289,-2.35906 -9.2793,5.2168 -3.79596,8.58335 -6.102,10.07631 -15.55468,10.0664 -14.67395,-0.0154 -24.65973,-6.0378 -30.45508,-18.36523 -2.59237,-5.51429 -2.87153,-7.78192 -2.25391,-18.29492 0.83308,-14.18067 4.4433,-26.5381 20.64453,-70.66602 36.5237,-99.48098 42.85023,-125.2548 39.14258,-159.43945 -2.43873,-22.48518 -9.40052,-53.22656 -12.05469,-53.22656 z"
       transform="translate(-20.715983,-117.32417)" />
  </g>
</svg>
